<svg width="36" height="36" xmlns="http://www.w3.org/2000/svg">

 <g>
  <title>background</title>
  <rect fill="none" id="canvas_background" height="602" width="802" y="-1" x="-1"/>
 </g>
 <g>
  <title>Layer 1</title>
  <path id="svg_1" d="m35.12346,26c0,2.209 -1.791,4 -4,4l-26,0c-2.209,0 -4,-1.791 -4,-4l0,-19.687c0,-2.209 5.791,-6.313 8,-6.313l20.625,0c3.094,0 5.375,2.312 5.375,5.375l0,20.625z" fill="#36803b"/>
  <path id="svg_2" d="m33,30c0,2.209 -1.791,4 -4,4l-22,0c-2.209,0 -4,-1.791 -4,-4l0,-24c0,-4.119 -0.021,-4 5,-4l21,0c2.209,0 4,1.791 4,4l0,24z" fill="#CCD6DD"/>
  <path id="svg_3" d="m31,31c0,1.657 -1.343,3 -3,3l-24,0c-1.657,0 -3,-1.343 -3,-3l0,-24c0,-1.657 1.343,-3 3,-3l24,0c1.657,0 3,1.343 3,3l0,24z" fill="#E1E8ED"/>
  <path id="svg_4" d="m31,32c0,2.209 -1.791,4 -4,4l-21,0c-2.209,0 -4,-1.791 -4,-4l0,-22c0,-2.209 1.791,-4 4,-4l21,0c2.209,0 4,1.791 4,4l0,22z" fill="#36803b"/>
  <path id="svg_5" d="m29,32c0,2.209 -1.791,4 -4,4l-19,0c-2.209,0 -4,-1.791 -4,-4l0,-20c0,-2.209 1.791,-4 4,-4l19.335,0c2.209,0 3.665,1.456 3.665,3.665l0,20.335z" fill="#3f9943"/>
  <path id="svg_6" d="m6,6c-1.688,0 -1.731,-1.922 -1,-2.75c0.832,-0.941 2.125,-1.25 4.438,-1.25l1.562,0l0,-2l-2.719,0c-3.969,0 -7.281,2.5 -7.281,5.375l0,26.625c0,2.209 1.791,4 4,4l2,0l0,-30l-1,0z" fill="#36803b"/>
  <path id="svg_7" d="m25,18c0,1.104 -0.896,2 -2,2l-10,0c-1.104,0 -2,-0.896 -2,-2l0,-2c0,-1.104 0.896,-2 2,-2l10,0c1.104,0 2,0.896 2,2l0,2z" fill="#E1E8ED"/>
 </g>
</svg>